<svg width="80" height="32" viewBox="0 0 80 32" xmlns="http://www.w3.org/2000/svg"><title>verdict-logo-small</title><g fill="#C53F35" fill-rule="evenodd"><path d="M79.117.306C74.47 1.758 74.396 1.525 66.442 3.79c0 0-9.36 2.79-9.36 12.572 0 9.78 5.602 12.782 10.258 13.878v-3.825s-6.519-.912-6.519-10.072c0-7.91 9.013-9.54 9.013-9.54l.04 24.069 3.677.987-.013-26.113L79.117 4.2V.306zM14.375 3.755L9.07 22.173 4.698 1.443.167.212l7.585 31.06 2.426-.69 7.913-26.049-3.716-.778zM32.59 6.304c-1.829-.586-11.516-1.379-11.516-1.379l-7.59 24.968s5.702-1.267 15.258-1.762c-.084-1.548-.1-2.453-.343-3.698-1.231.11-9.703.842-9.703.842l1.464-4.713 3.223-.102 1.074-3.67-3.31.07 2.56-7.934s6.295.566 7.006.76c1.468.371 2.004 1.5 2.004 3.379-.141 1.87-1.177 2.972-3.55 3.452-1.07.242-1.95.251-1.95.251l-1.012 3.598s2.054-.087 3.534 1.263c1.392 1.367 1.742 2.114 1.927 6.355 1.786-.042 2.375-.098 3.861-.12-.278-6.345-3.176-8.702-3.176-8.702s3.731-1.958 3.962-5.959c.04-1.93-.669-6.041-3.722-6.899M36.76 5.91c.844 1.087 1.473 2.643 1.794 4.07 1.254-.002 7.671-.287 7.784 6.513 0 8.569-6.66 7.577-8.71 7.591.38 1.462.412 2.806.482 3.758 1.885.004 11.934 1.55 11.934-11.41 0-10.856-10.85-10.528-13.283-10.522M51.777 28.24l3.473.25V5.239l-3.473.273V28.24z"/></g></svg>